<svg width="40" height="40" viewBox="0 0 40 40" fill="none" xmlns="http://www.w3.org/2000/svg">
  <circle cx="20" cy="20" r="20" fill="#2563EB"/> <path d="M20 6C15.0294 6 11 10.0294 11 15C11 21.6667 20 34 20 34C20 34 29 21.6667 29 15C29 10.0294 24.9706 6 20 6Z" fill="white"/>
  
  <path d="M22 13V20C22 20.5523 21.5523 21 21 21H19C18.4477 21 18 20.5523 18 20V13C18 12.4477 18.4477 12 19 12H21C21.5523 12 22 12.4477 22 13Z" fill="#2563EB"/>
  <path d="M22 14.5H18" stroke="#2563EB" stroke-width="1" stroke-linecap="round"/>
  <path d="M24.5 16V19.5C24.5 20.3284 23.8284 21 23 21V21" stroke="#2563EB" stroke-width="1" stroke-linecap="round"/>
</svg>
